<svg version="1.1" width="200" height="200" xmlns="http://www.w3.org/2000/svg" xmlns:drag="http://www.codedread.com/dragsvg"><style type="text/css">@font-face { font-family: Goblin;
                src: url("Goblin/GoblinOne-webfont.eot");
                src: url("Goblin/GoblinOne-webfont.eot?#iefix") format("embedded-opentype"),
                url("Goblin/GoblinOne-webfont.woff") format("woff"),
                url("Goblin/GoblinOne-webfont.ttf") format("truetype"),
                url("Goblin/GoblinOne-webfont.svg#Goblin") format("svg");
                font-weight: bold;
                font-style: normal; }@font-face { font-family: Helsinki;
                src: url("Helsinki/helsinki-webfont.eot");
                src: url("Helsinki/helsinki-webfont.eot?#iefix") format("embedded-opentype"),
                url("Helsinki/helsinki-webfont.woff") format("woff"),
                url("Helsinki/helsinki-webfont.ttf") format("truetype"),
                url("Helsinki/helsinki-webfont.svg#Helsinki") format("svg");
                font-weight: bold;
                font-style: normal; }</style><defs id="filter"><filter id="stamp4Filter" x="-0.3" y="-0.3" width="1.6" height="1.6"><feGaussianBlur id="blur_stamp4" stdDeviation="0.5"/></filter></defs><defs id="linearGradient"><linearGradient id="myGrad" x1="0" y1="0" x2="0" y2="200" gradientUnits="userSpaceOnUse"><stop offset="0%" stop-color="#f0e904"/><stop offset="100%" stop-color="#dc8f21"/></linearGradient></defs><defs id="clipping"><clipPath id="myClip" clipPathUnits="userSpaceOnUse"><rect x="0" y="0" width="200" height="200" id="rectClip" fill="none" stroke="none" rx="13" ry="13"/></clipPath></defs><defs id="patternDef"/><g id="g1" clip-path="url(#myClip)"><rect x="0" y="0" width="200" height="200" id="rect1" fill="url(#myGrad)" stroke="none" rx="13" ry="13"/><text id="text4" style="font-family: Goblin; font-size: 20px; font-weight: normal; font-style: normal; fill: rgb(243, 243, 243); position: relative;" transform="rotate(0,99.56666564941406,151.75) translate(6,158)" px="6" py="158" pFont="normal" a0:enable="true" xmlns:a0="http://www.codedread.com/dragsvg" a0:x="0" a0:y="0" cursor="" class="">Jede 8. Fahrt</text>




       <g id="stamp3" transform="rotate(0,169.255859375,81.5) translate(132,19) scale(1.25)" px="132" py="19" pScale="1.25" a1:enable="true" xmlns:a1="http://www.codedread.com/dragsvg" a1:x="132" a1:y="19" cursor="" class="" style="fill: rgb(195, 181, 0); filter: none;">
  <defs id="defs3211"/>
  <g transform="translate(-329.05454,-467.49294)" id="layer1" translateX="-329.05454" translateY="-467.49294" cursor="">
    <path d="m 388.66352,478.34819 c -0.0199,-0.0583 -0.27185,-0.27184 -0.37005,-0.33019 -0.0982,-0.0584 -0.15514,-0.17506 -0.23342,-0.25334 -0.46682,-0.50526 -2.6074,-2.0808 -2.70418,-2.15908 -0.7401,-0.56361 -2.87925,-2.02245 -3.50264,-2.3925 -0.19498,-0.1167 -1.09021,-0.68174 -1.26527,-0.81694 -1.6709,-1.3336 -3.57095,-2.64014 -5.04971,-3.28203 -0.11956,-0.0669 -0.19641,-0.10959 -0.22203,-0.1224 -0.52518,-0.29177 -2.29429,-0.66039 -2.56755,-0.71875 -0.27327,-0.0584 -0.35013,-0.0384 -0.48676,-0.0384 -0.79845,0.0783 -2.87925,-0.0199 -3.07423,-0.0384 -3.71612,-0.19499 -4.33951,-0.64189 -4.45622,-0.68174 -0.19498,-0.0783 -0.40847,0.0783 -0.75859,0.13663 -0.37005,0.11671 -1.49727,0.33019 -1.71076,0.37005 -0.5451,0.13663 -2.33556,0.4284 -2.52912,0.4469 -1.06887,0.17506 -2.80097,0.11671 -2.89775,0.0968 -0.0584,-0.0384 -0.25334,-0.0384 -0.4284,-0.0199 -0.29177,0 -0.95358,0.21349 -1.187,0.25334 -0.23341,0.0399 -1.12864,0.31027 -1.3037,0.35012 -0.54511,0.15514 -1.86874,0.91516 -1.98544,0.99201 -1.03186,0.54511 -3.81433,2.85933 -4.06625,3.22937 -0.17363,0.19499 -1.12721,0.99201 -1.39906,1.22543 -2.25728,1.55562 -4.49322,3.8314 -4.64977,3.98796 -0.15656,0.15656 -0.54511,0.52518 -0.58354,0.64189 -0.0384,0.11671 -0.21349,0.19498 -0.3302,0.38855 -0.1167,0.19498 0.11671,0.0384 0.27185,-0.17506 0.15513,-0.21349 0.1167,-0.0584 0.23341,-0.0783 0.11671,-0.0199 0.19499,0.0199 0.38855,0.0583 0.77852,0.27184 3.50121,1.51719 3.96804,1.78903 1.67375,0.81695 2.33414,1.16707 3.05431,1.75061 0.0783,0.0783 -0.0384,0.17506 -0.13664,0.37005 -0.0982,0.19498 0.0783,0.0199 0.15514,-0.13664 0.0783,-0.15513 0.11671,-0.19498 0.35012,-0.19498 1.96552,-0.13521 4.2228,0.0199 4.33951,0.0399 0.1167,0.0185 0.0626,0.0384 0.0427,0.27184 0.0199,1.3037 0.24907,1.75061 0.30743,1.94559 0.29177,0.52518 0.64189,0.4284 0.70024,0.40848 0.0584,-0.0199 0.0584,0.0199 0.0584,0.13663 0.0384,1.47876 0.23342,1.84739 0.27185,1.94559 0.0384,0.0982 0.0384,0.11671 0.0384,0.17506 0,0.0583 -0.0384,0.0783 -0.13663,0.15514 -0.0968,0.0769 -0.13663,0.1352 -0.27184,0.33019 -0.13521,0.19499 -0.17506,0.23341 -0.27184,0.3302 -0.0968,0.0968 -0.38855,0.4469 -0.50526,0.58353 -0.11671,0.13663 -0.74009,0.66182 -0.83687,0.71875 -0.0968,0.0584 -0.38855,0.29176 -0.46683,0.37004 -0.0783,0.0783 -0.0968,0.0783 -0.27184,0.13663 -0.17506,0.0584 -1.38199,0.56361 -1.6339,0.68174 -0.25192,0.11813 -1.24535,0.54369 -1.55704,0.68032 -1.45884,0.54511 -3.20945,1.71218 -3.32615,1.78903 -0.11671,0.0769 -0.0584,0.0968 -0.13664,0.0968 -0.0783,0 -0.29176,0.40847 -0.4284,0.75859 -0.21348,0.7771 -0.29176,1.75061 -0.19498,2.13916 0.0384,0.36862 0.0199,0.17506 0,0.33019 -0.0199,0.15514 0,0.13663 0.0199,0.27184 0.0199,0.13521 0.0199,0.15514 -0.0384,0.35012 -0.0584,0.19499 -0.13664,0.89381 -0.13664,1.08879 0,0.19499 -0.0199,2.21744 -0.0199,2.54906 0,0.33161 0.0199,0.64188 -0.0199,0.79702 -0.0399,0.15513 0.0584,0.97351 0.0783,1.26527 0.0199,0.29177 -0.17506,1.22543 -0.25334,1.53712 -0.0968,0.46683 -0.50525,2.15908 -0.50525,3.09274 -0.0384,0.56361 -0.0584,0.56361 -0.11671,0.70024 -0.11671,0.29177 -0.15514,0.70024 -0.17364,0.8938 -0.0214,0.19499 -0.25334,1.30371 -0.27184,1.43892 -0.0214,0.13663 -0.0214,0.17506 -0.11671,0.31169 -0.70024,1.3037 -1.05036,2.89775 -1.20692,3.32615 -0.29177,0.8753 -0.31169,2.0808 -0.31169,2.21743 0,0.13663 -0.0199,0.19499 -0.11671,0.3302 -0.74009,1.51719 -0.8753,2.46935 -0.8753,2.60598 0,0.13663 -0.0384,0.21349 -0.11671,0.31169 -0.0783,0.0982 -0.37005,0.54511 -0.46683,0.72017 -0.48675,1.01051 -1.01193,2.29429 -1.07029,2.39249 -0.0584,0.0982 -0.0584,0.11671 -0.0584,0.17506 0,0.0584 -0.0199,0.0783 -0.0968,0.17506 -0.99201,0.68174 -0.58354,1.38056 -0.54511,1.5172 0.0384,0.13663 0.11671,0.23341 0.0783,0.37004 -0.0384,0.13663 -0.0584,1.16707 -0.0584,1.28378 0,0.11671 -0.0968,0 -0.25334,-0.0384 -0.15656,-0.0384 -0.15514,0.17506 -0.17506,0.35012 -0.0199,0.17506 0.0199,0.17506 -0.0968,0.17506 -0.11671,0 -1.187,-0.13663 -1.40049,-0.17506 -0.21349,-0.0384 -0.13663,-0.0783 -0.15513,-0.15513 -0.0185,-0.0769 -0.3117,-0.0584 -0.46683,-0.0783 -0.15514,-0.0199 -0.15514,-0.0968 -0.19499,-0.17506 -0.0399,-0.0783 -0.48675,-0.0968 -0.77852,-0.11671 -0.29177,-0.0199 -0.29177,0.13663 -0.31169,0.19499 -0.0199,0.0584 -0.0783,0 -0.0783,-0.0584 0,-0.0584 -0.0584,-0.0968 -0.27184,-0.1167 -0.21349,-0.0199 -0.11671,0 -0.13663,0.0783 -0.0199,0.0783 -0.0584,0.0783 -0.0783,-0.0199 -0.0199,-0.0982 0.0199,-0.0199 -0.11671,-0.0199 -0.13663,0 -0.15514,0.0584 -0.19499,0.0968 -0.0399,0.0384 -0.66181,-0.0584 -1.07029,-0.0783 -0.40847,-0.0199 -0.93365,-0.0584 -1.30227,-0.0384 -0.37005,0.0199 -0.50526,0.0199 -0.66182,0.0783 -0.15656,0.0584 -0.27184,0.31169 -0.29177,0.4469 -0.0199,0.13521 -0.0783,0.77852 -0.1167,1.08879 -0.0199,0.52518 -0.48676,5.15503 -0.52518,5.50516 -0.0384,0.35012 -0.40848,4.47471 -0.44691,4.92162 -0.0783,0.50525 -0.27184,3.46278 -0.31169,3.69619 -0.0783,0.73867 0.11671,0.60204 0.46683,0.66039 0.29177,0.0384 1.3037,0.17506 1.3037,0.17506 0,0 0,0 0.0968,0.0199 0.0968,0.0199 0.0783,0.0783 0.11671,0.17506 0.15513,0.23341 0.4284,0.13663 0.4654,-0.0384 0.0797,-0.0199 0.7586,0.0384 0.89523,0.0384 0.13663,0 0.21349,0.0199 0.27184,0.0783 0.0584,0.0584 0.23342,0.0384 0.35012,0.0199 0.11671,-0.0185 0.11671,0.11671 0.17507,0.25334 0.0584,0.13521 0.15513,0.0968 0.29176,0.0968 0.13664,0 0.21349,-0.19499 0.25334,-0.29177 0.0199,-0.0584 0.0384,-0.0584 0.15514,-0.0384 0.1167,0.0199 4.96147,0.3302 5.35144,0.35012 0.50526,0.0584 5.75849,0.35012 5.99191,0.35012 0.23341,0 0.25334,0.0584 0.27184,0.17506 0.0185,0.11671 0.29177,0.0783 0.38855,0.0199 0.0968,-0.0584 0.0968,-0.13663 0.17506,-0.13663 0.0783,0 1.09021,0.0783 1.43891,0.19498 0.19499,0.0384 0.25334,0.0384 0.29177,0.11671 0.0584,0.21349 0.29177,0.11671 0.37005,0.11671 0.0783,0 0.0783,-0.0584 0.1167,-0.13664 0.0384,-0.0783 0.0783,-0.0199 0.0968,0.11671 0.0185,0.13663 0.0384,0.74009 0.0199,0.89523 -0.0584,0.40847 -0.17506,2.25586 -0.21349,2.64441 -0.0384,0.38855 -0.21349,2.60598 -0.23341,2.80097 -0.0968,0.70024 -0.27184,3.42293 -0.3117,3.77305 -0.0399,0.35012 -0.29176,1.34213 -0.38712,1.71218 -0.0384,0.93365 -0.83688,2.41241 -0.66181,2.97602 0.0968,0.62197 0.58353,0.60204 0.72016,0.70025 0.0783,0.0384 0.15514,0.1167 0.32877,0.19498 0.17507,0.0783 0.40848,0.27184 0.40848,0.3302 0,0.0584 -0.0584,0.19498 -0.0783,0.25334 -0.0199,0.0584 -0.0384,0.83545 -0.0384,1.14714 0,0.31169 0.0199,0.46683 -0.0584,0.56361 -0.0783,0.0968 -0.11671,0.23342 -0.0968,0.38855 0.0199,0.15656 -0.0384,0.11671 -0.19357,0.29177 -0.15655,0.17506 -0.15655,0.17506 -0.15655,0.17506 0,0 0,0 -0.0584,0.13663 -0.0569,0.13663 -0.13663,0.25334 -0.29034,0.35012 -0.15514,0.0968 -0.19499,0.19499 -0.23342,0.31169 -0.0384,0.11671 -0.25333,0.19499 -0.50525,0.3302 -0.25334,0.13521 -0.17506,0.13521 -0.37005,0.31027 -0.19498,0.17506 -0.4469,0.35012 -0.62338,0.50526 -0.17649,0.15513 -0.29177,0.5451 -0.3117,0.74009 -0.0199,0.19499 0,0.19499 -0.15513,0.23341 -0.29177,0 -0.21349,0.44691 -0.21349,0.62197 0,0.17506 1.71218,0.4284 2.23736,0.4469 2.17758,0.17506 3.32615,-0.27184 3.59799,-0.35012 0.7586,-0.13664 0.83687,-0.87531 0.93366,-1.01051 0.0968,-0.13521 0.56361,-0.0199 0.56361,-0.0199 0,0 0,0 0.38854,0 0.38855,0 1.67375,-0.48675 1.82889,-0.60346 0.15513,-0.11671 0.15513,-0.25334 0.15513,-0.40848 0,-0.15513 -0.0584,-0.93365 -0.0783,-1.14714 -0.0199,-0.21349 -0.19498,-0.23341 -0.27184,-0.23341 -0.0768,0 -0.0384,-0.0199 -0.0199,-0.17506 0.0584,-0.3117 0,-0.56361 -0.0199,-0.68032 -0.0199,-0.11671 -0.0199,-0.23341 0.0199,-0.29177 0.0399,-0.0584 -0.0199,-0.19498 -0.0968,-0.38855 -0.0769,-0.19356 -0.23342,-1.28377 -0.25334,-1.36205 -0.0199,-0.0783 -0.0584,-0.0783 0.0384,-0.23342 0.19499,-0.27184 0.35012,-0.27184 0.44691,-0.29176 0.35012,-0.0968 0.62338,-0.23342 0.72016,-0.27185 0.19499,-0.17506 0.17506,-0.35012 0.17506,-0.4469 0,-0.0968 -0.1167,-0.99201 -0.15513,-1.18699 -0.0584,-0.46683 -0.35012,-0.64189 -0.4469,-0.70025 -0.25334,-0.15513 -0.4284,-0.31169 -0.52518,-0.4284 -0.25334,-0.40847 -0.58354,-1.63389 -0.64189,-1.77053 -0.0584,-0.13663 0.0583,-0.52518 0.0968,-0.70024 0.0384,-0.17506 0.93365,-3.7147 0.97351,-3.94811 0.13663,-0.38855 0.75859,-3.2678 0.79844,-3.44286 0.0726,-0.25049 0.73156,-3.55672 0.78991,-3.71185 0.0242,-0.11101 0.0384,-0.18645 0.047,-0.21634 0.62338,-2.66575 0.50525,-3.32615 0.4284,-3.79297 -0.13664,-0.46683 -0.0384,-0.87531 0,-1.03186 0.0584,-0.29177 0.1167,-0.89381 0.15513,-1.05037 0.25334,-0.74009 0.25334,-1.53711 0.25334,-1.67232 0,-0.13521 0.0783,0 0.0968,0.15513 0.17506,0.62339 0.46683,1.43891 0.60346,1.75061 0.17506,0.35012 0.72017,1.57554 0.79845,1.73068 0.0783,0.15513 0.0968,0.37004 0.17506,0.52518 0.37005,0.8753 0.54368,1.6339 0.58354,1.82888 0.34869,1.49727 0.58211,2.06088 0.79702,2.56756 0.13663,0.27184 0.21349,0.5451 0.25334,0.74009 0.0399,0.19499 0.0584,0.29177 0.11671,0.46683 0.1167,0.27184 0.19498,0.68031 0.19498,0.81695 0,0.27184 0.15514,0.81695 0.23342,1.03043 0.13663,0.35012 0.17506,0.60346 0.19498,0.83688 0.0384,0.79845 0.3302,1.7506 0.37005,1.86731 0.0783,0.15514 0.17506,1.18557 0.21349,1.43891 0.0199,0.19499 0.45686,2.78816 0.6305,3.47132 -0.001,0.19641 0.41132,1.8232 0.45402,1.99826 0.45259,1.99825 0.74436,1.98402 1.02332,2.45084 0.0427,0.0441 0.0142,0.0882 -0.074,0.1893 -0.0882,0.10105 -0.77425,0.83118 -0.90519,1.02047 -0.13094,0.18929 0.0726,0.49672 0.20495,0.78848 0.13236,0.29177 0.32165,0.62766 0.30742,0.68601 -0.0156,0.0584 0.0868,0.13094 0.21776,0.33589 0.13236,0.23342 0.19072,0.48106 0.24907,0.71448 0.0584,0.23341 0,0.36435 -0.0897,0.45259 -0.0868,0.0882 -0.13094,0.84542 -0.13094,1.21119 -0.0441,0.46683 0.30885,0.62197 0.53942,0.73013 0.58353,0.33447 1.32932,0.24765 1.41472,0.24765 0.0897,0 0.047,0.0811 0.0299,0.32166 -0.19071,0.80271 1.15284,1.00766 1.40049,1.05036 0.59777,0.11671 1.4873,0.0726 1.76484,0.0584 0.27611,-0.0142 2.49496,-0.35012 2.71272,-0.38001 0.21918,-0.0299 0.14802,-0.36435 0.11671,-0.51095 -0.0285,-0.14659 -0.18929,-0.306 -0.26188,-0.35012 -0.074,-0.0441 -0.0583,-0.17506 -0.0897,-0.33446 -0.32023,-1.13861 -1.53142,-1.96979 -1.63389,-2.05661 -0.10105,-0.0882 -0.34159,-0.55222 -0.38855,-0.63904 -0.0455,-0.0868 0.0228,-0.11528 0.13948,-0.074 0.11386,0.0399 0.10247,-0.19641 0.0626,-0.23626 -0.0399,-0.0399 -0.12098,-0.15513 -0.17933,-0.27611 -0.0569,-0.12098 -0.0569,-0.12667 -0.0441,-0.17791 0.0114,-0.0527 0.0171,-0.12524 -0.0413,-0.1836 -0.0584,-0.0584 -0.0384,-0.15513 0,-0.25334 0.0384,-0.13663 0.0584,-0.25334 0.0584,-0.33019 0,-0.0769 0.0968,-0.23342 0.0968,-0.38855 -0.0327,-0.24907 0.23341,-0.56361 0.25334,-0.68032 0.0171,-0.0256 0.0299,-0.0441 0.0384,-0.0598 0.1167,-0.25334 0.0384,-0.56361 0.0199,-0.70025 -0.0199,-0.23341 -0.1167,-0.42697 -0.17506,-0.50525 -0.37005,-0.56361 -1.26243,-2.33414 -1.38198,-2.68426 -0.0583,-0.0968 -0.0384,-0.17506 0,-0.35012 0.0584,-0.35013 0.54511,-3.03439 0.56361,-3.36458 0.29746,-1.81892 -0.0228,-2.95611 -0.0413,-3.24787 -0.0199,-0.084 -0.0327,-0.13664 -0.0356,-0.15656 -0.0199,-0.11671 -0.4469,-2.00395 -0.4469,-2.31422 -0.0171,-0.15513 -0.12382,-1.59404 -0.18218,-1.63247 -0.006,-0.0484 -0.01,-0.0825 -0.0128,-0.0982 -0.13663,-0.70025 -0.1167,-1.24535 -0.0968,-1.38199 0.0584,-0.50525 0.0413,-1.88296 0.0413,-1.99967 0,-0.11671 -0.16083,-1.73637 -0.19072,-1.85308 -0.10105,-0.38001 -0.0882,-1.34213 -0.0882,-1.51719 0,-0.17506 0.0299,-0.32166 0.0584,-0.48106 0.0299,-0.15941 0.39425,-1.83885 0.38001,-2.26013 0.0882,-1.13861 0.0427,-3.04862 0.0427,-3.22368 0,-0.17506 -0.14517,-2.80097 -0.14517,-2.91767 0,-0.11671 -0.13236,-0.87531 -0.14802,-1.00625 -0.0142,-0.13094 0,-0.24764 0.0299,-0.33588 0.0285,-0.0883 0.0868,-0.13094 0.1594,-0.1466 0.24907,-0.0441 0.99201,-0.42271 1.04894,-0.46683 0.14802,-0.1594 0.4284,-0.40705 0.51949,-0.48817 0.0911,-0.0811 0.14944,-0.18503 0.22772,-0.24338 0.0769,-0.0584 1.0646,-0.58354 1.18557,-0.70024 0.0783,-0.0584 0.0968,-0.0584 0.0783,-0.15514 -0.0185,-0.0968 -0.19498,-0.91515 -0.23341,-1.07029 -0.0783,-0.4284 -0.89096,-4.3879 -0.92085,-4.51884 -0.0285,-0.13094 -0.70024,-3.60226 -0.7287,-3.77732 -0.0299,-0.17506 -0.10248,-0.51095 -0.0897,-0.58353 0.0157,-0.0726 -0.0142,-0.13094 -0.0427,-0.306 -0.0285,-0.17506 -0.306,-1.99825 -0.33446,-2.05661 -0.0285,-0.0584 -0.0299,-0.0726 -0.0299,-0.1167 0,-0.0441 -0.0299,-0.10248 -0.074,-0.16083 -0.0441,-0.0584 -0.0441,-0.0299 -0.0441,-0.14517 0,-0.11671 -0.0413,-0.26331 -0.0726,-0.38001 -0.0285,-0.11671 -0.24764,-1.50296 -0.29176,-1.73638 -0.0427,-0.23341 -0.13094,-0.86107 -0.15941,-1.26954 -0.0157,-0.59777 -0.20495,-1.54566 -0.21776,-1.85308 -0.0156,-0.91942 0.21776,-1.56131 0.20353,-1.8972 0.0156,-0.17506 0.1167,-0.0882 0.19071,-0.0142 0.21776,0.27753 0.91943,0.68458 1.0646,0.81695 0.0584,0.0882 0.13236,0.10247 0.24907,0.1167 0.13094,-0.0584 0.56788,0.32166 1.10872,0.51095 0.88953,0.36435 1.21119,0 1.88154,-0.32165 0.29177,-0.1466 0.29177,-0.21919 0.37859,-0.35013 0.14802,-0.306 0.36577,-0.67035 0.45259,-0.83118 0.43837,-1.08025 0.49672,-2.11496 0.55507,-2.39249 0.15941,-0.77283 -0.1594,-1.05036 -0.21776,-1.21119 -0.0299,-0.0441 -0.0441,-0.0726 -0.0584,-0.16083 -0.0441,-0.38001 -0.43979,-1.07883 -0.52518,-1.31224 -0.36578,-0.8753 -0.46683,-1.58978 -0.54084,-1.86731 -0.306,-0.94932 -0.94789,-1.66237 -1.04894,-1.76484 -0.0584,-0.0441 -0.074,-0.13094 -0.0584,-0.21918 0.14517,-1.12295 0.0285,-1.40049 0.0142,-1.57555 -0.11671,-0.91942 -0.29177,-1.56131 -0.32165,-1.73637 -0.32166,-2.02814 -0.48249,-2.55332 -0.61343,-2.7725 -0.306,-0.612 -0.43836,-0.59777 -0.49671,-0.58354 -0.0584,0.0142 -0.0883,-0.0299 -0.13237,-0.0882 -0.0427,-0.0584 -0.91942,-0.39424 -1.04894,-0.43836 -0.89096,-0.27754 -2.52201,-0.70309 -2.70845,-0.75006 -0.1836,-0.0455 -0.41132,-0.12382 -0.52803,-0.14375 -0.11671,-0.0199 -0.13663,0 -0.13663,-0.15513 0,-0.15514 -0.13664,-4.31816 -0.15514,-4.57008 -0.0199,-0.52518 0,-0.52518 0.13663,-0.56361 0.3117,-0.1167 5.03975,-0.93365 5.77985,-1.07029 0.52518,-0.0968 1.01193,-0.19356 1.28377,-0.19356 0.27185,0 6.67223,-0.50526 7.4109,-0.38855 0.38855,0.0199 0.48675,0.0584 0.58353,0.0783 0.0968,0.0199 0.0968,0.0783 0.19499,0.23341 0.0982,0.15514 0.0384,-0.0584 -0.0199,-0.15513 -0.0583,-0.0968 -0.0583,-0.13663 -0.0199,-0.19499 0.0968,-0.17506 1.07029,-0.8568 1.22542,-0.95358 0.21349,-0.15513 2.54905,-1.65382 4.43629,-2.5092 0.15514,-0.0783 1.59547,-0.68174 2.17901,-0.66181 0.13663,0 0.25334,0.1167 0.37004,0.25334 0.11671,0.13663 0.10248,0.0128 0.084,-0.0455 z m -45.72496,48.89028 c -0.19498,-0.0114 -0.19498,0.28607 -0.20637,0.38854 -0.0114,0.1039 -0.0455,0.0811 -0.1594,0.0811 -0.11529,0 -2.75827,-0.29746 -2.93191,-0.30885 -0.17364,-0.0114 -0.0811,0 -0.13806,-0.0455 -0.0569,-0.0455 -0.0128,-0.24053 0,-0.36578 0.0114,-0.12524 0.0242,-0.12524 0.22915,-0.16083 0.20637,-0.0341 0.14802,-0.0797 0.2633,-0.0569 0.11528,0.0228 0.14802,0.0342 0.2078,0.0911 0.27326,0.22915 0.68601,0.0342 0.74294,-0.0228 0.0569,-0.0584 0.11528,-0.0114 0.20637,0.0683 0.33162,0.343 0.72159,-0.0455 0.77994,-0.11529 0.0555,-0.0683 0.12525,-0.0228 0.21634,0 0.29746,0 0.56218,-0.38855 0.67604,-0.50383 0.0455,-0.0683 0.10248,-0.0569 0.1836,0.0683 0.14802,0.30884 0.11386,0.83545 0.12525,0.91657 0.0114,0.0797 -0.12525,-0.0341 -0.19499,-0.0341 z m 4.31105,-8.2862 c 0.0498,0.0242 0.037,0.26899 0.0114,0.612 -0.0256,0.343 -0.15798,3.97373 -0.15798,4.28827 0,0.31596 -0.23626,3.13116 -0.20922,4.13171 -10e-4,0.10959 -0.004,0.0683 -0.16367,0.084 -0.15941,0.0157 -0.13236,-0.0142 -0.23342,-0.0882 -0.10105,-0.074 -0.074,-0.0441 -0.30742,-0.0583 -0.23341,-0.0142 -0.17506,0 -0.33446,-0.0726 -0.15941,-0.0726 -0.074,-0.0726 -0.0584,-0.13094 -0.0299,-0.0726 -0.20495,-0.10105 -0.70024,-0.13094 -0.49529,-0.0299 -0.36578,0.1466 -0.43836,0.26188 -0.0726,0.11671 -0.11671,0.0142 -0.17506,-0.0583 -0.0584,-0.0726 -0.10105,0 -0.15941,0.0583 -0.0584,0.0584 -0.13236,0.0142 -0.20495,0.0142 -0.0726,0 0,-0.32165 0,-0.43693 -0.0142,-0.0883 -0.13094,-0.10248 -0.24764,-0.0726 -0.11671,0.0299 -0.0584,-0.4526 -0.0584,-0.62766 0.10106,-1.02047 -0.20637,-1.32789 -0.46682,-1.58977 -0.11671,-0.0726 0.0427,-0.26331 0.1167,-0.35012 0.40848,-0.55507 0.35012,-0.72871 0.62624,-1.18131 0.074,-0.13094 0.33446,-0.83118 0.45117,-0.93365 0.0583,-0.0883 0.35012,-0.42271 0.45259,-0.52519 0.71448,-0.8753 0.83118,-1.25531 1.0646,-1.61966 0.16083,-0.20353 0.23341,-0.33447 0.306,-0.46683 0.39424,-0.84684 0.75575,-1.71218 0.93935,-2.56471 0.0527,-0.19641 0.0527,-0.0911 0.0583,0.0313 0.009,0.20494 -0.12809,1.04609 -0.15513,1.19411 -0.0299,0.14517 0.0156,0.21491 0.0441,0.23199 z m 18.76421,-20.47354 c 0.14232,-0.0982 0.28465,0.10959 0.28465,0.10959 0,0 -0.27327,0.0768 -0.0655,0.40563 0.20779,0.32877 0.48106,0.38997 0.93081,0.38428 0.84541,-0.0114 1.09733,-0.41559 1.09733,-0.41559 0,0 -0.14375,0.40562 -0.31881,0.84399 -0.17506,0.43836 -0.0114,0.60203 -0.4711,0.64615 -0.45971,0.0441 -1.03044,-0.0769 -1.16138,-0.40562 -0.13236,-0.32878 -0.40705,-1.11868 -0.29603,-1.56843 z m -9.48458,-5.3059 c 0.35012,0.45971 0.61484,0.5266 0.61484,0.5266 0,0 -0.43978,1.31509 -0.94361,3.02585 -0.50384,1.71075 -0.70167,4.38647 -0.70167,5.41691 0,1.03044 -0.24053,3.64069 -0.24053,5.8994 0,2.2587 -0.15371,5.59197 -0.15371,5.59197 l -1.00909,0.0441 c 0,0 0.0897,-1.36063 0.43979,-2.50066 0.35012,-1.14003 0.28465,-2.58748 0.24195,-3.5738 -0.0441,-0.98631 -0.17506,-2.60883 -0.26473,-4.86896 -0.0882,-2.2587 -0.61484,-6.62241 -0.72301,-7.58737 -0.11101,-0.96497 -0.21918,-2.52201 -0.17506,-3.85988 0.0427,-1.33786 0.67889,-2.45654 0.67889,-2.45654 0.17506,-0.22629 0.61485,-0.78279 0.61485,-0.78279 l 0.0669,0.59208 c 0,0 -0.11671,0.12382 -0.16937,0.28465 -0.0498,0.16083 -0.0356,0.34443 -0.006,0.47537 0.0285,0.13236 0.13948,0.21918 1.09591,1.28662 0.95785,1.06744 0.92085,1.19127 0.92085,1.19127 0,0 -0.50384,-0.0584 -0.7159,0.10247 -0.21207,0.16083 -0.51095,0.59919 -0.65897,0.88527 -0.1466,0.28465 -0.82549,1.08879 -1.0162,1.36632 -0.19072,0.27754 -0.26331,0.35155 -0.29889,0.29889 -0.037,-0.0512 -0.0669,-0.20495 -0.14802,-1.2055 -0.0811,-1.00055 0,-1.16992 -0.0228,-2.23736 -0.0228,-1.06744 0.32308,-1.70364 0.3672,-1.82746 0.0427,-0.12383 -0.0299,-0.12383 -0.0299,-0.12383 0,0 -0.0655,0.19784 -0.28323,1.03044 -0.21918,0.83261 -0.15371,1.29374 -0.11101,2.96037 0.0441,1.66664 0.21918,1.5784 0.35154,1.46881 0.13237,-0.1096 1.42468,-1.95129 1.62252,-2.19324 0.19783,-0.24196 0.68174,-0.43979 1.00909,-0.43979 0.32877,0 0.70166,0.17649 0.24195,0.13236 -0.61485,-0.0882 -1.09733,0.32878 -1.09733,0.32878 0,0 0.15086,0.28749 0.50241,0.74863 z m 3.65065,20.35114 c 0,0 -0.0882,-0.94362 -0.10959,-1.53569 -0.0213,-0.59208 -0.13094,-1.97406 -0.0783,-3.03723 0.0555,-1.06318 -0.0968,-3.30053 -0.0968,-3.30053 0,0 0.31738,2.36829 0.45971,3.78301 0.0769,1.41472 0.43836,4.01216 0.43836,4.01216 l -0.61342,0.0783 z m 0.82122,-21.11828 c 0,0 -0.25192,2.96038 -0.39424,3.97943 -0.14233,1.01905 -0.36151,2.47789 -0.40563,3.04861 -0.0427,0.57073 -0.29462,2.55475 -0.29462,2.55475 0,0 -0.0669,-1.58978 -0.10959,-2.47789 -0.0441,-0.88811 -0.0228,-1.49157 -0.34015,-2.64299 -0.31739,-1.15141 -1.08595,-2.78531 -1.08595,-2.78531 0,0 -0.12098,-0.0769 0.14375,-0.38428 0.2633,-0.30742 0.50383,-0.71163 0.5693,-1.04182 0.0669,-0.32878 0.31739,-0.50384 0.31739,-0.50384 0,0 0.25334,-0.17648 0.46113,-0.35154 0.2078,-0.17648 0.36151,-0.32877 0.36151,-0.32877 l 0.70309,0.95358 0.01,-0.12098 c 0,0 -0.8326,-1.261 -1.3279,-1.4688 -0.14232,0.1651 -0.26188,0.44975 -0.45828,0.68032 -0.19784,0.23057 -0.40563,0.40563 -0.46114,0.40563 -0.0555,0 -1.15853,0.14659 -1.15853,0.14659 0,0 0.39424,-0.16083 0.70878,-0.59207 0.31454,-0.43125 1.16992,-1.44745 1.36063,-1.59405 0.19072,-0.14659 0.73583,-0.54795 0.95359,-0.86534 0.21918,-0.31881 0.58068,-0.91088 0.58068,-0.91088 0,0 0.14375,0.54795 0.1096,1.09733 -0.0342,0.54937 -0.24338,3.20232 -0.24338,3.20232 z m 3.75028,-3.30195 c -0.52518,-0.0199 -1.39906,-0.35012 -1.82889,-0.4469 -0.21206,-0.0384 -0.4654,-0.0783 -0.64046,-0.25334 -0.0968,-0.0584 -0.21349,-0.13663 -0.35012,-0.15514 -0.13663,-0.0185 -0.40848,-0.21349 -0.58354,-0.35012 -0.13663,-0.11671 -0.23341,-0.15513 -0.19498,-0.25334 0.0384,-0.17506 0.0968,-0.93365 0.15513,-1.10871 0.0584,-0.17506 0.0199,-0.23342 0.11671,-0.19499 0.0968,0.0399 0.27184,0.15513 0.4469,-0.11671 0.17506,-0.27184 0.29177,-0.60346 0.35012,-0.83687 0.0584,-0.23342 0.11671,-0.64189 0.0968,-0.73867 -0.0199,-0.0982 -0.0384,-0.0399 -0.0199,-0.25334 0.0199,-0.21349 -0.0199,-0.29177 0.0199,-0.4284 0.0399,-0.13663 0.0384,-0.23342 0.15514,-0.21349 0.11671,0.0199 1.2055,0.11671 1.86731,0.37005 0.11671,0.0584 0.13663,0.0968 0.13663,0.21348 0,0.11671 0.0783,0.29177 0.0584,0.11671 -0.0199,-0.17506 0.0199,-0.29177 0.0584,-0.27184 0.0384,0.0199 0.0584,-0.0199 0.0584,0.13663 0,0.15656 0.13664,4.59 0.13664,4.68679 0,0.0968 0.0199,0.11813 -0.0384,0.0982 z" id="path21" style="fill-rule:evenodd"/>
  </g></g>

       <g id="stamp4" transform="matrix(1, 0, 0, 1, 13, 30)" px="13" py="30" pScale="1.0" a2:enable="true" xmlns:a2="http://www.codedread.com/dragsvg" a2:x="13" a2:y="30" cursor="" class="" style="fill: rgb(221, 183, 0); filter: url(&quot;#stamp4Filter&quot;);">
  <defs id="defs3743"/>
  <g transform="translate(-13.931168,-545.43295)" id="layer1" translateX="-13.931168" translateY="-545.43295" cursor="">
    <path d="m 56.831224,569.20054 c -0.02969,-0.34369 -0.05864,-0.68887 -0.08908,-1.03331 -0.06829,-0.15737 -0.137329,-0.314 -0.206365,-0.47211 -0.146979,-0.38378 -0.295443,-0.76607 -0.443164,-1.15134 -0.260554,-0.2702 -0.520366,-0.54115 -0.781662,-0.81135 -0.34889,-0.38304 -0.698522,-0.76607 -1.047411,-1.14985 -0.216015,-0.10838 -0.43203,-0.21676 -0.648787,-0.32514 -0.196714,-0.10838 -0.393429,-0.21675 -0.589401,-0.32365 -0.570843,0.0386 -1.141686,0.0772 -1.711787,0.11655 -0.540408,0.50329 -0.486961,1.01029 -0.472115,2.03618 -0.369674,0.0445 -0.737864,0.0883 -1.106797,0.13287 0.08388,0.19746 0.167764,0.39343 0.250904,0.59014 0.422379,0.13288 0.845501,0.26501 1.268623,0.39863 0.245707,0.19226 0.492157,0.38378 0.737864,0.57455 0.383779,0.26056 0.766816,0.52111 1.150594,0.78167 0.186322,0.12842 0.373387,0.2561 0.560451,0.38377 0.06087,0.13808 0.01707,0.33776 0.04454,0.5174 0.129906,0.86777 -0.351859,1.3577 -0.678479,1.91667 -0.478053,0.88113 -0.955364,1.76152 -1.431933,2.64117 -0.65324,0.8069 -1.307965,1.61306 -1.961948,2.41996 -0.26575,-0.12768 -0.530758,-0.2561 -0.796508,-0.38453 v -2.37467 c -0.240511,-0.5894 -0.481765,-1.18029 -0.722276,-1.77043 -0.197457,-0.2947 -0.394171,-0.5894 -0.590144,-0.88485 -0.171475,-0.65918 -0.344435,-1.31687 -0.516653,-1.97605 -0.398625,-0.75345 -0.796508,-1.50542 -1.195133,-2.25813 -0.383037,-0.3192 -0.766816,-0.63765 -1.149852,-0.95908 -0.516654,-0.13139 -1.032565,-0.26501 -1.549219,-0.39714 H 41.78294 c -0.510716,-0.14475 -1.457172,-0.79131 -1.754842,-1.16692 -0.06903,-0.22567 -0.138071,-0.45133 -0.207107,-0.677 0.108379,-0.21676 0.216757,-0.43277 0.325136,-0.65027 0.290247,0.17741 0.580493,0.35557 0.87074,0.53224 0.460237,0.16109 1.428963,0.28134 1.990898,0.11803 0.158114,-0.0594 0.315486,-0.11803 0.472857,-0.17741 0.0045,-0.01 0.0089,-0.0193 0.01485,-0.029 -0.08908,-0.10838 -0.177414,-0.2175 -0.26575,-0.32514 -0.0193,-0.0193 -0.0386,-0.0393 -0.05864,-0.0586 0.156629,-0.11358 0.314,-0.22641 0.472114,-0.33998 0.08388,-0.12471 0.06532,-0.40754 0.05864,-0.6191 -0.609443,-0.26501 -1.218887,-0.5315 -1.829073,-0.79651 v -0.0156 c 0.334786,-0.20563 0.668829,-0.41348 1.003615,-0.62058 0.104667,-0.22938 -0.02524,-1.36067 -0.07423,-1.66577 -0.0097,-0.18186 -0.0193,-0.36447 -0.02969,-0.54634 -0.195972,-0.29025 -0.393428,-0.57901 -0.589401,-0.87 0.132875,-1.49429 0.265751,-2.98932 0.397883,-4.48583 -0.06384,-0.50626 -0.127679,-1.01178 -0.19226,-1.51879 -0.290247,-0.50626 -0.580494,-1.01252 -0.869255,-1.51878 -0.280597,-0.65472 -0.560451,-1.30945 -0.841048,-1.96269 -0.374128,-0.37932 -0.747514,-0.75791 -1.120901,-1.13575 -0.216757,-0.2316 -0.432772,-0.46246 -0.649529,-0.69481 -0.609443,-0.12619 -1.220371,-0.25461 -1.829073,-0.38303 -0.600536,-0.13214 -1.199587,-0.26501 -1.800123,-0.39789 -0.910082,0.19672 -1.819423,0.39269 -2.728763,0.5894 -0.437226,0.39418 -0.875194,0.78835 -1.313162,1.18103 -0.536696,0.47212 -1.07265,0.94349 -1.607862,1.4156 -0.334786,0.51146 -0.669571,1.02366 -1.004357,1.53438 -0.221211,0.32513 -0.44168,0.64953 -0.663633,0.97392 -0.08908,0.54635 -0.177414,1.09195 -0.26575,1.6383 -0.182611,0.86925 -0.282824,1.72218 -0.236057,2.7874 0.0059,0.40308 0.01039,0.80616 0.01485,1.20998 0.452814,0.57085 0.904886,1.14095 1.356958,1.71105 0.320682,0.47731 0.639137,0.95388 0.959076,1.43267 -0.260554,0.53002 -0.52185,1.06152 -0.782404,1.59302 -0.373386,0.0193 -0.746772,0.0393 -1.121643,0.0579 -0.02153,-0.0653 -0.0438,-0.11729 -0.06607,-0.17445 -0.184837,0.0787 -0.396398,0.1262 -0.639136,0.1262 -0.09353,0 -0.178156,-0.0141 -0.262781,-0.026 -0.0015,0.006 -0.0022,0.0111 -0.0037,0.0163 -1.192906,0.59534 -2.137878,1.36958 -3.806611,1.50468 -0.417925,1.4015 -0.83585,2.80299 -1.253776,4.20449 -0.216757,1.32207 -0.432772,2.64562 -0.649529,3.96844 0.04454,0.99842 0.08908,1.99535 0.132875,2.99377 -0.08314,1.80012 -0.167021,3.60024 -0.250161,5.40037 -0.03934,0.81506 -0.07869,1.63161 -0.118029,2.44816 -0.0045,0.3051 -0.0097,0.60945 -0.01485,0.91528 -0.0141,0.45133 -0.02969,0.90415 -0.04454,1.35696 -0.07126,0.44613 -0.05345,1.02885 0.01485,1.46088 0.0193,0.3578 0.03934,0.71783 0.05939,1.07637 0.02895,0.60944 0.05864,1.22037 0.08908,1.82981 0.216015,0.89969 0.432029,1.79938 0.648044,2.69981 0.197457,0.94869 0.394171,1.89886 0.590144,2.84605 0.290246,0.90118 0.580493,1.80087 0.870739,2.7013 0.255358,1.65166 0.510716,3.30406 0.766816,4.95721 0.177414,0.30954 0.354828,0.61835 0.5315,0.92938 -0.177414,0.38304 -0.354829,0.76756 -0.5315,1.15059 -0.355571,0.8069 -0.721534,1.58782 -1.062259,2.41922 -0.255357,0.64879 -0.510715,1.29906 -0.766815,1.94784 -0.126936,0.63469 -0.2561,1.26863 -0.383036,1.90331 -0.0245,0.51071 -0.04973,1.02291 -0.07497,1.53214 -0.168507,0.57159 -0.62429,1.05113 -0.737123,1.66799 -0.159598,0.87743 -0.236057,1.79493 -0.236057,2.7592 v 2.05103 c -0.265008,1.60786 -0.530758,3.21572 -0.796508,4.82359 v 3.11328 c -0.05864,0.76607 -0.117286,1.53289 -0.176672,2.30193 -0.04973,0.6384 -0.09799,1.27753 -0.147721,1.91741 -0.0438,0.57456 -0.08759,1.14985 -0.132133,1.72589 -0.204138,1.25452 -0.19523,2.46598 -0.443164,3.6871 -0.290247,0.89078 -0.580493,1.78082 -0.869998,2.6716 -0.03934,0.79651 -0.07794,1.59302 -0.118771,2.39027 -0.290246,0.71856 -0.580493,1.43564 -0.87074,2.15347 -0.678479,0.23605 -1.356958,0.47211 -2.035437,0.70817 -0.383779,0.19152 -0.7683,0.38378 -1.151337,0.57455 -0.0045,0.0104 -0.0097,0.02 -0.01485,0.0297 0.28505,0.30509 0.570843,0.60944 0.855151,0.91453 0.221211,0.029 0.443164,0.0594 0.663633,0.0883 0.89969,0.17741 1.683579,0.11728 2.611477,-0.029 0.506261,0.0186 1.013265,0.0393 1.519526,0.0579 0.127679,-0.10838 0.2561,-0.21527 0.383037,-0.3244 0.08908,-0.0638 0.177414,-0.12842 0.26575,-0.19226 0.08314,-0.46172 0.167022,-0.92492 0.250161,-1.3859 0.195972,-0.54561 0.393429,-1.0927 0.590886,-1.6383 0.0824,-0.0683 0.167022,-0.13807 0.250161,-0.20562 0.167022,-0.16331 0.334786,-0.32514 0.501808,-0.48697 0.245707,-0.11357 0.492157,-0.2264 0.737122,-0.33923 0.117287,0.16331 0.03415,0.8455 0.07423,1.10605 0.04825,0.8507 0.09799,1.70139 0.146979,2.55209 h 0.590144 c -0.334786,-1.05483 -0.387491,-2.36651 0.132875,-3.23131 0.351859,-0.58421 0.878905,-1.15728 1.106054,-1.85803 0.0097,-0.19819 0.02004,-0.39491 0.03044,-0.59088 0.0141,-0.18187 0.02969,-0.36448 0.04454,-0.54561 -0.462465,-1.06745 -0.925672,-2.13416 -1.387394,-3.20162 0.05419,-0.71336 0.108379,-1.42673 0.162568,-2.13936 0.03489,-0.54115 0.06904,-1.08304 0.103182,-1.62345 0.195972,-0.72302 0.393429,-1.44529 0.589401,-2.16905 0.639137,-1.4208 1.279015,-2.84234 1.918152,-4.26314 0.05938,-0.76682 0.117286,-1.53437 0.176671,-2.30119 0.08388,-1.1068 0.167764,-2.21359 0.250904,-3.31965 0.157372,-1.05186 0.314743,-2.10521 0.472115,-3.15782 0.34889,-0.71782 0.697779,-1.43639 1.046669,-2.15347 0.683676,-0.70743 1.367351,-1.4156 2.051027,-2.12377 0.526304,-0.5508 1.052608,-1.10234 1.578911,-1.65314 0.383037,-0.47509 0.852925,-0.88188 1.283469,-1.31317 0.782404,-0.78166 1.564066,-1.56258 2.345727,-2.34498 0.792797,-0.79206 1.31242,-1.88698 1.903306,-2.87649 0.181868,-0.32513 0.363736,-0.64953 0.546346,-0.97466 0.195972,-0.15737 0.392687,-0.31474 0.589401,-0.47286 0.187064,-0.15663 0.374129,-0.314 0.560451,-0.47137 0.03044,-0.0304 0.06013,-0.0594 0.08908,-0.0883 0.157372,3.06801 0.314743,6.13675 0.472115,9.2055 0.17296,0.49067 0.344436,0.98209 0.516653,1.47499 0.236058,0.71262 0.472115,1.42525 0.708172,2.13936 0.462465,0.8841 0.92493,1.77043 1.386652,2.65527 0.417925,0.60425 0.836593,1.20924 1.253776,1.81349 0.02004,0.70891 0.03934,1.41708 0.05864,2.12451 0.368933,1.86396 0.737865,3.72718 1.106797,5.59115 0.309547,1.02811 0.619836,2.05622 0.930126,3.08285 0.04454,0.66882 0.08834,1.3384 0.13139,2.00648 0.04454,0.59534 0.08908,1.18994 0.132875,1.78454 -0.152175,0.54115 -0.305093,1.0823 -0.456526,1.62345 -0.393429,1.32578 -0.721534,2.68645 -1.122386,3.95285 -0.146979,0.4632 -0.2947,0.92567 -0.441679,1.38739 -0.08759,0.27911 -0.136587,0.60053 -0.294701,0.81135 -0.364478,0.46247 -0.728215,0.92493 -1.092693,1.38665 -0.152175,0.0445 -0.305093,0.0883 -0.456526,0.13362 -0.509973,0.17667 -0.980603,0.35409 -1.417086,0.57456 -0.09724,0.0445 -0.195972,0.0883 -0.294701,0.13361 -0.08834,0.20117 -0.177414,0.40308 -0.26575,0.60351 v 0.19226 c 0.418668,0.0683 0.836593,0.13807 1.253776,0.20711 0.708172,0.0386 1.417087,0.0779 2.124516,0.11654 0.442422,-0.0237 0.885587,-0.0482 1.328008,-0.0735 0.821005,-0.12322 1.734057,-0.0579 2.625582,-0.0586 0.147721,-0.14772 0.221211,-0.43426 0.310289,-0.63394 0.123225,-0.24719 0.245707,-0.4929 0.368932,-0.73861 0.07869,-0.41793 0.157372,-0.83585 0.236058,-1.25378 0.176671,-0.41792 0.353343,-0.83585 0.530757,-1.25377 v -0.029 c 0.09279,1.0333 0.187065,2.06587 0.280597,3.09844 0.07572,0.0698 0.803189,0.092 0.973922,0.0883 -0.08388,-0.51591 -0.167764,-1.03256 -0.251646,-1.54922 0.01559,-0.19745 0.02969,-0.39343 0.04454,-0.59014 0.02524,-0.33479 0.04974,-0.66957 0.07423,-1.00362 0.08314,-0.31474 0.167022,-0.63022 0.250161,-0.94423 0.182611,-0.31474 0.364479,-0.62948 0.545605,-0.94422 0.07423,-0.27392 0.147721,-0.55006 0.221953,-0.82472 0.05419,-0.19746 0.107636,-0.39417 0.161825,-0.59089 -0.07349,-0.13733 -0.146979,-0.2754 -0.220468,-0.41347 -0.128421,-0.26055 -0.2561,-0.52036 -0.384521,-0.7824 -0.274658,-0.32885 -0.550801,-0.65844 -0.825459,-0.98803 -0.112832,-0.83511 -0.226407,-1.67244 -0.339982,-2.50755 0.177414,-1.33766 0.354829,-2.67532 0.5315,-4.01297 0.01856,-0.69407 0.0386,-1.38666 0.05864,-2.07998 0.0097,-0.2999 0.02004,-0.5998 0.03044,-0.90043 0.130648,-0.80542 0.03192,-1.72144 -0.08908,-2.46302 -0.04008,-0.50181 -0.07868,-1.00361 -0.118771,-1.50468 -0.141782,-0.44242 -0.28505,-0.88558 -0.427575,-1.32801 -0.187064,-0.60424 -0.373386,-1.20923 -0.560451,-1.81348 -0.373386,-0.83214 -0.747515,-1.66279 -1.120901,-2.49345 -0.221211,-0.49141 -0.442422,-0.98357 -0.664375,-1.47573 -0.07943,-0.16776 -0.28802,-0.41867 -0.250162,-0.66363 0.08314,-0.77201 0.167765,-1.54328 0.250162,-2.31604 0.417925,-1.67689 0.836593,-3.35528 1.254518,-5.03069 0.0386,-0.8841 0.07869,-1.77043 0.117287,-2.65527 0.03415,-0.71263 0.06829,-1.426 0.103182,-2.13862 0.132875,-1.54403 0.26575,-3.08879 0.398625,-4.63207 0.06904,-0.71857 0.138071,-1.43639 0.206365,-2.15421 0.190033,-1.11571 0.265008,-2.31603 0.07423,-3.40799 -0.05864,-0.53669 -0.118771,-1.0719 -0.177414,-1.60786 -0.280597,-0.37041 -0.411987,-0.98877 -0.589402,-1.44529 -0.17296,-0.50181 -0.344435,-1.00362 -0.516653,-1.50542 -0.511458,-0.36745 -1.023658,-0.73713 -1.534373,-1.10532 -0.314743,-0.23605 -0.629486,-0.47211 -0.944229,-0.70817 -0.855894,-0.52185 -1.711787,-1.04221 -2.566938,-1.56406 -0.314001,-0.24571 -0.629487,-0.49142 -0.94423,-0.73713 -0.476568,-0.35408 -0.953879,-0.70817 -1.430448,-1.06225 -0.09873,-0.26204 -0.196714,-0.52185 -0.2947,-0.78167 -0.143268,-0.34963 -0.285793,-0.69852 -0.428318,-1.04741 -0.0097,-0.33998 -0.01856,-0.67922 -0.02895,-1.01846 -0.01039,-0.24571 -0.02004,-0.49141 -0.03043,-0.73786 0.108379,-0.24571 0.216757,-0.49142 0.325136,-0.73713 0.162568,-0.39788 0.324393,-0.79725 0.487703,-1.19513 0.236058,-0.37264 0.471373,-0.74751 0.708172,-1.1209 0.320682,-0.51369 0.541151,-1.11274 1.061516,-1.43119 0.299154,0.0586 0.569358,0.32217 0.826201,0.45727 -0.0245,0.57084 -0.04825,1.1402 -0.07423,1.7103 0.123225,0.23754 0.24645,0.47286 0.368932,0.70891 0.387491,0.76162 0.760877,1.48093 1.20998,2.15421 0.344436,0.52631 0.688871,1.05261 1.032565,1.57743 0.299897,0.32068 0.600536,0.63988 0.900432,0.95982 0.18558,0.21156 0.373387,0.42238 0.560451,0.63394 0.250161,0.16702 0.501065,0.33404 0.751969,0.50181 0.255358,0.18261 0.510715,0.36373 0.766815,0.5456 0.54115,0.12768 1.082301,0.2561 1.623451,0.38378 1.089724,-0.81878 1.414117,-2.03024 2.13862,-3.18678 0.545604,-0.86109 1.091951,-1.72143 1.637555,-2.58178 0.201168,-0.47805 0.403079,-0.95388 0.60499,-1.43193 0.334786,-0.76682 0.668829,-1.53289 1.004357,-2.30193 0.171476,-0.50181 0.342951,-1.00288 0.515911,-1.50394 0.32959,-0.9138 0.659179,-1.82907 0.988769,-2.74435 -0.0141,-0.12323 -0.02969,-0.25165 -0.04454,-0.37933 z m -28.280857,28.17693 c -0.315485,-0.2702 -0.630229,-0.5404 -0.944229,-0.81061 -0.343694,-0.83733 -0.68813,-1.67244 -1.033308,-2.50903 -0.476569,-0.71189 -1.434902,-1.10457 -1.681352,-2.0347 -0.0245,-4.37226 -0.04899,-8.74377 -0.07349,-13.11529 0.677737,1.60787 1.356958,3.21573 2.035437,4.82359 1.003615,1.4401 2.006488,2.88317 3.010103,4.32252 0.393429,1.20033 0.786858,2.39918 1.180286,3.59951 0.118029,0.87073 0.236058,1.74147 0.354086,2.61221 l -2.847534,3.1118 z" id="path590" style="fill-rule:evenodd"/>
  </g></g>
<text id="text5" style="font-family: Helsinki; font-size: 36px; font-weight: normal; font-style: normal; fill: rgb(255, 255, 255); position: relative;" transform="rotate(0,94.3499984741211,88) translate(26,98)" px="26" py="98" pFont="normal" a3:enable="true" xmlns:a3="http://www.codedread.com/dragsvg" cursor="" class="" x="26" y="98"><animateTransform id="animationRotate_text5" attributeName="transform" type="rotate" from="0 94.3499984741211 88" to="360 94.3499984741211 88" dur="3s" repeatCount="indefinite"/>Gratis!<animate id="animationColor_text5" dur="6s" attributeName="fill" from="rgb(255, 255, 255)" to="#a25ade" repeatCount="indefinite"/></text><rect x="0" y="0" width="200" height="200" id="rectBorder" fill="none" stroke="#000000" stroke-width="0" stroke-opacity="1" shape-rendering="geometricPrecision" rx="13" ry="13"/></g></svg>