<svg version="1.1" width="130" height="130" xmlns="http://www.w3.org/2000/svg" xmlns:drag="http://www.codedread.com/dragsvg">
                    <style type="text/css">
font-face { font-family: Goblin;
                src: url("~/Content/banner/Goblin/GoblinOne-webfont.eot");
                src: url("/~Goblin/GoblinOne-webfont.eot?#iefix") format("embedded-opentype"),
                url("~/Content/banner/Goblin/GoblinOne-webfont.woff") format("woff"),
                url("~/Content/banner/Goblin/GoblinOne-webfont.ttf") format("truetype"),
                url("~/Content/banner/Goblin/GoblinOne-webfont.svg#Goblin") format("svg");
                font-weight: bold;
                font-style: normal; }</style>
                    <defs id="filter" />
                    <defs id="linearGradient"><linearGradient id="myGrad" x1="0" y1="0" x2="0" y2="130" gradientUnits="userSpaceOnUse"><stop offset="0%" stop-color="#fff116" /><stop offset="100%" stop-color="#dc9921" /></linearGradient></defs>
                    <defs id="clipping"><clipPath id="myClip" clipPathUnits="userSpaceOnUse"><rect x="0" y="0" width="130" height="130" id="rectClip" fill="none" stroke="none" /></clipPath></defs>
                    <defs id="patternDef" />
                    <g id="g1" clip-path="url(#myClip)">
                        <rect x="0" y="0" width="130" height="130" id="rect1" fill="url(#myGrad)" stroke="none" />
                        <text id="text2" style="font-family: Goblin; font-size: 13px; font-weight: normal; font-style: normal; fill: rgb(253, 253, 253); position: relative;" transform="rotate(0,65.09166717529297,111.75) translate(4,116)" px="4" py="116" pFont="normal" a0:enable="true" xmlns:a0="http://www.codedread.com/dragsvg" a0:x="0" a0:y="0" cursor="" class="">Jede 8. Fahrt</text>
                        <g id="stamp1" transform="matrix(0.77, 0, 0, 0.77, 2, 3)" px="2" py="3" pScale="0.77" a1:enable="true" xmlns:a1="http://www.codedread.com/dragsvg" cursor="" class="" style="fill: rgb(209, 170, 58);" a1:x="2" a1:y="3">
                            <defs id="defs3497" />
                            <g transform="translate(-332.86303,-468.2431)" id="layer1" translateX="-332.86303" translateY="-468.2431" cursor="">
                                <path d="m 380.48228,497.79184 c 0.0265,-0.31214 -0.0683,-0.69536 -0.0976,-0.83052 -0.0279,-0.13796 0.20345,-0.28846 0.23411,-0.42363 0.0293,-0.13656 -0.0822,-0.62707 -0.23411,-0.92946 -0.15189,-0.2996 -0.24665,-0.46125 -0.28566,-0.69536 -0.0404,-0.23132 -0.0822,-0.39575 -0.20345,-0.51838 -0.12542,-0.12262 -0.13657,-0.42083 -0.21878,-0.64101 -0.0822,-0.21877 -0.19231,-0.21738 -0.2578,-0.24386 -0.0683,-0.0306 -0.20484,-0.19091 -0.28845,-0.37067 -0.0822,-0.17837 -0.27174,-0.43477 -0.39436,-0.76363 -0.12403,-0.32748 -0.28567,-0.43478 -0.46543,-0.58527 -0.17837,-0.15329 -0.24526,-0.53232 -0.2996,-0.6661 -0.0543,-0.13517 -0.28567,-0.46403 -0.61175,-1.10504 -0.32887,-0.63961 -0.65634,-1.11758 -0.96848,-1.33636 -0.31493,-0.22018 -0.22017,-0.23272 -0.32887,-0.59921 -0.1059,-0.36788 -0.51559,-0.43756 -0.73437,-0.55879 -0.22017,-0.12402 -0.10869,-0.4501 -0.0153,-0.81798 0.0934,-0.36928 0.0293,-0.66888 -0.0265,-0.76503 -0.0543,-0.0961 -0.46404,-0.35395 -0.59921,-0.8584 -0.13517,-0.50305 -0.50444,-1.50079 -0.76503,-1.98991 -0.25919,-0.49191 -0.4933,-0.43617 -0.61314,-0.43617 -0.12262,0 -0.75109,-0.26058 -1.70564,-0.57133 -0.95454,-0.31075 -1.40464,-0.39715 -2.04705,-0.40969 -0.641,-0.0125 -1.27923,-0.20345 -2.26164,-0.25919 -0.98521,-0.0557 -1.92442,-0.0557 -2.27837,-0.19091 -0.35395,-0.13517 -0.54765,-0.12123 -0.7929,-0.21878 -0.24526,-0.0962 -0.48912,-0.24525 -0.69396,-0.51699 -0.20485,-0.27451 -0.37067,-0.43895 -0.37067,-0.43895 0,0 -0.053,-0.28566 -0.0934,-0.76363 -0.0404,-0.47379 0,-0.73298 0,-0.73298 0,0 0.34002,-0.38182 0.59921,-0.88627 0.26197,-0.50305 0.2341,-0.942 0.28845,-1.56768 0.0543,-0.62847 0.1491,-1.10365 0.12263,-1.62203 -0.0265,-0.51978 0.0683,-0.40969 0.0543,-0.46404 -0.0111,-0.0557 -0.13656,-0.30099 -0.15049,-0.40829 -0.0153,-0.11009 0.0822,-0.0683 0.0711,-0.13657 -0.0153,-0.0697 -0.17976,-0.69396 -0.32886,-1.28062 -0.1491,-0.58527 -0.47797,-0.9002 -0.61314,-1.09111 -0.13656,-0.1937 -0.36788,-0.58806 -0.44871,-0.79151 -0.0808,-0.20345 -0.0683,-0.22992 -0.54485,-0.7065 -0.47937,-0.47658 -0.87651,-0.43616 -1.03955,-0.43616 -0.16304,0 -0.22993,-0.0697 -0.39436,-0.1505 -0.16304,-0.0808 -0.36928,0.0557 -0.54486,-0.0251 -0.17976,-0.0836 -0.43616,-0.0139 -0.76224,-0.0557 -0.32887,-0.0432 -0.43756,-0.0948 -0.43756,-0.0948 0,0 0.12263,0.17418 -0.0139,0.13517 -0.13935,-0.0404 -0.24525,-0.31493 -0.62707,-0.54486 -0.38461,-0.23272 -0.50445,-0.17976 -0.50445,-0.17976 0,0 0.17558,0.0962 -0.13656,0.0697 -0.31354,-0.0293 -0.42362,0 -0.42362,0 l 0.13517,0.0962 c 0,0 -0.12124,-0.0153 -0.32469,0.039 -0.20484,0.0557 -0.5992,0.36928 -0.88626,0.46404 -0.28567,0.0962 -0.51978,0.0697 -0.51978,0.0697 0,0 0.12402,0.0808 0.0404,0.16165 -0.0822,0.0808 -0.40968,-0.0822 -0.40968,-0.0822 0,0 0,0.0125 0.0557,0.12263 0.0543,0.10869 -0.14911,0.0683 -0.24665,0.12263 -0.0976,0.0543 -0.32469,0.1491 -0.32469,0.1491 0,0 0,0.0279 0.0139,0.1505 0.0125,0.12263 -0.23411,0.0683 -0.36928,0.0418 -0.13517,-0.0279 -0.4501,0.47658 -0.61314,0.58527 -0.16304,0.10591 -0.2996,0.17558 -0.6006,0.25641 -0.30239,0.0836 -0.81798,0.49329 -0.90159,0.72322 -0.16583,0.46822 0.1937,0.57273 0.36788,0.69675 0.17698,0.12123 0.44035,0.27173 0.44035,0.27173 0,0 0.10591,0.0432 -0.24804,0 -0.35395,-0.0404 -0.46543,-0.30099 -0.46543,-0.30099 0,0 -0.0822,-0.0404 -0.0265,0.0961 0.0557,0.13935 0.35534,0.23271 0.55879,0.28845 0.20346,0.0557 0.49052,0 0.49052,0 0,0 -0.0822,0.0948 -0.39436,0.12124 -0.31354,0.0293 -0.72462,-0.23132 -0.72462,-0.23132 0,0 0.0404,0.039 0.12541,0.12123 0.0794,0.0836 0.43617,0.16443 0.66749,0.17837 0.22992,0.0153 0.58666,-0.29124 0.62846,-0.17001 0.0404,0.12263 -0.0418,0.32747 -0.34976,1.12455 -0.30797,0.79708 -0.18534,1.04234 -0.16304,1.26948 0.0195,0.22575 -0.0223,0.26616 -0.0822,0.43059 -0.0627,0.16165 0.0223,0.49191 0.0404,0.73437 0.0195,0.24526 0.4933,0.63544 0.61175,0.79708 0.12402,0.16444 -0.0181,0.18395 0,0.28706 0.0223,0.10312 0.18533,0.28707 0.18533,0.28707 0,0 -0.0223,0.0418 -0.12541,0.26615 -0.10033,0.22714 -0.22017,0.71626 -0.26337,1.10505 -0.0404,0.38739 0.22574,0.51141 0.22574,0.51141 0,0 0.0376,0.16165 0.20345,0.79569 0.16304,0.63543 0.51142,1.06463 0.67446,1.413 0.16304,0.34699 0.0195,0.69536 0.0599,1.12316 0.0432,0.43059 0.37067,0.3874 0.43059,0.49051 0.0627,0.10173 -0.32608,0.47101 -0.83889,0.71626 -0.51141,0.24665 -2.18779,1.04373 -3.57711,1.86032 -1.39349,0.81798 -2.96954,2.10697 -3.04897,2.23099 -0.0836,0.12124 -0.10172,0 -0.28706,0.0613 -0.18533,0.0599 -0.41108,0.77478 -0.36788,1.92023 0.0376,1.14685 0.4278,2.2073 0.4278,2.2073 0,0 -0.0599,0.34838 -0.14353,0.9434 -0.0808,0.59224 0.0836,1.3503 0.20485,1.71679 0.12402,0.36649 0.12402,0.30657 -0.0627,1.02283 -0.18255,0.71626 -0.30657,1.30989 -0.38879,2.45255 -0.0822,1.14685 0.26895,1.84221 0.26895,1.84221 0,0 -0.0627,0.10312 -0.26895,0.65355 -0.20345,0.55043 -0.28566,1.06184 -0.34558,1.36981 -0.0627,0.30657 -0.14493,0.24525 -0.24805,0.87929 -0.10033,0.63405 -0.0599,1.20677 -0.0599,1.20677 0,0 -0.28706,0.63265 -0.75667,1.94533 -0.47239,1.3071 -0.88208,3.1061 -1.24857,4.72117 -0.36788,1.61367 -0.67445,2.88454 -0.69536,3.21061 -0.0209,0.32887 -0.039,0.65495 -0.22435,0.98242 -0.18533,0.32747 -0.32608,0.79708 -0.4292,1.12316 -0.10172,0.32886 -0.0641,1.00471 -0.0836,1.49383 -0.0195,0.4933 -0.32607,1.02143 -0.40968,1.18726 -0.0836,0.16443 -0.22436,0.18255 -0.18395,0.30657 0.0404,0.12123 0.30657,0.24386 0.44871,0.28566 0.14492,0.0404 0.32887,0.14353 0.32887,0.14353 0,0 -0.0836,0.0836 -0.16583,0.20346 -0.0822,0.12262 -0.38739,0.55321 -0.57133,0.98241 -0.18255,0.4292 -0.0404,0.61453 -0.12263,0.67167 -0.0836,0.0613 -0.10033,0.10312 -0.18534,0.26616 -0.0822,0.16582 -0.20345,0.20484 -0.24525,0.61453 -0.0418,0.40969 0.0822,0.59502 0.10033,0.73855 0.0237,0.14214 -0.14214,0.40969 -0.22435,0.77757 -0.0808,0.36649 -0.0989,0.67167 -0.0181,0.8152 0.0794,0.14353 0.0181,0.30657 0.0181,0.30657 0,0 -0.0585,-0.0223 -0.16026,0 -0.10172,0.0209 -0.16443,0.20484 -0.28706,0.36928 -0.12262,0.16303 -0.22435,0.22295 -0.22435,0.22295 h -0.39018 c 0,0 -0.12123,0 -0.34837,-0.0404 -0.22296,-0.039 -0.28567,-0.039 -0.47101,0 -0.18254,0.0404 -0.28566,-0.0195 -0.28566,-0.0195 l -0.4501,-0.14492 -0.30657,0.0613 0.14353,0.12403 0.0223,0.10311 c 0,0 -0.20763,0 -0.57272,-0.0223 -0.36928,-0.0195 -0.51142,0.0627 -0.51142,0.0627 l -0.0404,-0.12403 c 0,0 -0.0822,0 -0.36928,0.0223 -0.28427,0.0209 -0.51141,-0.0627 -0.51141,-0.0627 l -0.0404,0.12402 c 0,0 -1.59556,-0.0836 -2.63929,0.0195 -1.04512,0.10173 -0.75806,0.34838 -0.84027,1.98295 -0.0822,1.63736 -0.26338,7.1793 -0.32748,9.61235 -0.0599,2.43444 -0.30657,5.11413 -0.26476,5.56284 0.0404,0.44871 0.43198,0.34698 0.71765,0.34698 0.28567,0 0.91971,0.12402 0.91971,0.12402 l 0.14492,0.32608 h 0.24526 l 0.16304,-0.20484 c 0,0 0.4933,0.10311 0.94061,0.22574 0.45149,0.12402 0.942,0.0404 0.942,0.0404 l 0.12402,0.43199 0.26477,-0.0223 0.24665,-0.51141 6.81281,-0.49051 7.95687,-0.59503 0.14353,0.4083 0.26616,0.0223 0.12402,-0.45009 c 0,0 0.57133,-0.0223 0.91831,-0.0808 0.34838,-0.0613 0.53093,-0.30657 0.53093,-0.30657 0,0 0.12541,4.57904 0.30796,6.64559 0.18533,2.06517 0.40969,4.4369 0.40969,4.4369 0,0 -0.18394,0.0836 -0.32747,0.10172 -0.14354,0.0223 -0.22296,0.10312 -0.59363,0.0613 -0.36789,-0.039 -0.65356,0.12402 -0.65356,0.12402 0,0 -0.28566,0.0808 -0.59223,0.14353 -0.30657,0.0613 -0.20485,-0.0404 -0.61314,0.36788 -0.40969,0.40969 -0.22575,2.12369 -0.0223,2.88315 0.25919,0.94618 0.37067,1.47293 0.37067,1.47293 0,0 0.20345,-0.0432 0.4083,-0.0223 0.20484,0.0223 0.16304,0.10312 0.30796,0.9002 0.14214,0.79847 0.16304,1.7572 0.16304,1.7572 l -0.16304,0.16443 c 0,0 -0.0627,0.77758 0.12124,2.33132 0.18672,1.55515 0.79847,2.00525 2.00524,3.02808 1.20677,1.02004 2.43165,1.3489 2.43165,1.3489 l 0.4515,-0.59363 c 0,0 0,0.12263 0.18533,0.26337 0.18255,0.14493 0.46961,0.24804 0.59363,0.37067 0.30796,0.30657 0.8361,0.51142 2.49575,0.55183 1.65548,0.0432 2.61699,-0.24386 2.74101,-0.32608 0.12263,-0.0836 0.10312,-0.26616 0.0627,-0.51141 -0.0432,-0.24526 -0.20484,-0.39018 -0.20484,-0.39018 0,0 0.0404,-0.20206 0.12123,-0.3874 0.085,-0.18394 0.0627,-0.59223 0.0404,-0.87651 -0.0195,-0.28845 -0.40829,-0.43198 -0.40829,-0.43198 0,0 0.0195,-0.039 0,-0.18255 -0.0195,-0.14492 -0.30796,-0.85979 -0.53371,-1.41301 -0.22435,-0.54903 -0.22435,-0.79568 -0.22435,-0.79568 l 0.26476,0.18394 c 0,0 0.10312,-0.26616 0.12542,-0.43059 0.0195,-0.16443 0.16164,-0.61314 0.32607,-0.9002 0.16304,-0.28706 0.12402,-1.18726 0.14353,-1.7154 0.0209,-0.53231 -0.55321,-1.06463 -0.55321,-1.06463 0,0 2.41632,-3.39456 3.51858,-4.82568 1.10504,-1.43252 2.82462,-3.86556 3.62309,-4.99151 0.79708,-1.12455 1.16496,-1.85893 1.47293,-2.43305 0.30796,-0.57412 0.63404,-1.12594 1.26808,-1.96343 0.63683,-0.84028 1.08553,-1.33079 2.06516,-2.88315 0.98242,-1.55654 1.26809,-2.2296 1.65966,-2.94446 0.3651,-0.67724 0.11984,-1.94532 0.0404,-2.41493 -0.0822,-0.46682 -0.24665,-0.63265 -0.34837,-0.91832 -0.10312,-0.28845 -0.0404,-0.40969 -0.16583,-0.79986 -0.12263,-0.3874 -0.0808,-0.79569 -0.12263,-1.34891 -0.0404,-0.55183 -0.38878,-0.8779 -0.4501,-1.10226 -0.0613,-0.22714 -0.10172,-0.57551 -0.18255,-0.84167 -0.0836,-0.26616 -0.43198,-1.7781 -0.73855,-3.1493 -0.30796,-1.36981 -0.22296,-1.36981 -0.42641,-2.00246 -0.20484,-0.63683 -0.37067,-1.14824 -0.37067,-1.14824 0,0 0.18673,-0.14214 0.4069,-0.4083 0.22714,-0.26755 0.16583,-0.69396 0.10312,-1.16357 -0.0627,-0.471 0,-0.63683 0.0223,-1.3503 0.0195,-0.71625 -0.34559,-0.94339 -0.4083,-1.16496 -0.0613,-0.22714 -0.18533,-0.4501 0.0195,-0.4083 0.20484,0.0418 -0.0195,-0.55182 -0.30796,-1.45202 -0.28428,-0.90159 -0.55183,-1.63597 -0.91971,-2.59748 -0.36788,-0.96151 -0.28706,-0.65494 -0.51141,-1.73769 -0.22296,-1.08275 -0.67446,-2.49715 -0.67446,-2.49715 0,0 0.0404,-0.12123 0.16304,-0.28427 0.12263,-0.16304 0.34838,-0.4501 0.51142,-0.75667 0.16303,-0.30657 0.24664,-0.4083 0.49329,-0.65495 0.24387,-0.24386 0.26477,-0.471 0.26477,-0.471 l 0.14353,0.0613 c 0,0 0.21599,0 0.27173,0.13517 0.0543,0.13517 -0.0962,0.1923 -0.27173,0.42362 -0.17698,0.23132 -0.24526,0.4501 -0.35534,0.65494 -0.11009,0.20485 -0.38182,0.5588 -0.58667,0.88487 -0.20484,0.32748 -0.15189,0.51838 0.0934,0.61454 0.24665,0.0948 0.56018,-0.26059 0.87372,-0.72462 0.31493,-0.46264 0.6006,-0.89881 0.83471,-1.19841 0.22992,-0.2996 0.36788,-0.38043 0.48911,-0.41944 0.12403,-0.0432 0.28706,-0.17976 0.39576,-0.27452 0.1073,-0.0962 0.23132,-0.1505 0.58805,-0.46404 0.35395,-0.31353 0.39436,-0.48911 0.51699,-0.4487 0.12263,0.039 -0.3428,0.4487 -0.3428,0.4487 0,0 0.17976,0.0557 0.31632,0.0557 0.13935,0 0.69675,-0.0139 0.69675,-0.0139 0,0 0.2578,-0.42223 0.31354,-0.46404 0.0543,-0.0404 0.10869,0 0.0836,0.30239 -0.0293,0.301 0.0557,0.23132 0.12123,0.0404 0.0683,-0.19091 0.14632,-0.51977 0.17698,-0.77617 0.0279,-0.26059 0.19091,-0.56019 0.27173,-0.72462 0.0836,-0.16583 0.0279,-0.35395 0.0543,-0.49191 0.0293,-0.13517 0.19369,-0.28566 0.42501,-0.7497 0.22854,-0.46403 0.20345,-0.61453 0.25919,-0.73716 0.0557,-0.12123 0.42502,-0.85839 0.58806,-1.33497 0.16165,-0.47936 0.13656,-0.87233 0.21739,-1.22767 0.0794,-0.35395 0.20345,-0.69396 0.31353,-1.06185 0.11009,-0.37067 0.11009,-1.03815 0.24526,-1.36423 0.13935,-0.32887 0.24665,-0.65494 0.2996,-0.99775 0.0543,-0.33862 -0.24386,-1.51055 -0.24386,-1.74187 -0.007,-0.22853 0.14074,-0.58527 0.1714,-0.89741 z M 352.38519,471.6972 c -0.1087,-0.0808 -0.0808,-0.27312 -0.0808,-0.27312 l 0.0948,-0.039 c 0,0 0.0139,0.0293 0.0376,0.16304 0.0279,0.13517 0.15189,0.26058 0.15189,0.26058 0,0 -0.0948,-0.0293 -0.20345,-0.11148 z m 0.27312,0.0697 c -0.1491,-0.13796 -0.17976,-0.30239 -0.17976,-0.30239 l 0.0153,-0.0808 c 0,0 0.13796,0.16304 0.26058,0.25779 0.12402,0.0962 0.20345,0.26059 0.20345,0.26059 0,0 -0.1491,0 -0.2996,-0.13517 z m -10.40106,53.61064 -0.30657,0.0223 -0.0822,-0.0627 -0.0223,-0.32608 0.47101,-0.0432 0.0223,0.26616 -0.0822,0.14353 z m 4.19582,-0.71626 c 0,0 0,0 -0.12402,-0.0195 -0.12124,-0.0195 -0.12124,0 -0.14353,0.0822 -0.0195,0.0822 -0.0404,0.4487 -0.0404,0.4487 0,0 -0.10311,0.0223 -0.942,0.0613 -0.83889,0.0404 -2.43305,0.0223 -2.43305,0.0223 0,0 0.0195,-0.0613 0.0195,-0.30657 0,-0.24525 -0.30796,-0.22574 -0.30796,-0.22574 0,0 0,0 0.0404,-0.16583 0.0418,-0.16164 0.0627,-0.4069 0.0627,-0.4069 0,0 0.14353,0.38739 0.40829,0.4069 0.26895,0.0223 0.4515,-0.0599 0.55322,-0.18255 0.10173,-0.12402 0.16304,-0.20345 0.28706,-0.16025 0.12263,0.0362 0.20345,0.20206 0.471,0.22157 0.26477,0.0181 0.30657,-0.0613 0.44732,-0.16444 0.14353,-0.10033 0.28845,0.0808 0.57272,0.14354 0.28706,0.0613 0.32887,-0.16583 0.32887,-0.16583 0,0 0.18255,0.14492 0.30796,0.16583 0.12124,0.0209 0.22296,-0.0822 0.30657,-0.16583 0.0808,-0.0794 0.18394,-0.0362 0.18394,-0.0362 v 0.44731 z m 0.57412,0.51141 h -0.40969 l -0.0836,-0.28427 h 0.4933 v 0.28427 z m 6.36271,0.0836 c 0,0 -0.69814,-0.26615 -0.9434,-0.24525 -0.24386,0.0209 -0.77896,0 -0.77896,0 0,0 -0.0599,-0.0822 -0.32469,-0.0822 -0.26755,0 -0.69535,-0.0627 -0.88069,0 -0.18255,0.0613 -0.386,0.10173 -0.59224,0.0822 -0.20345,-0.0209 -0.34698,0 -0.51141,-0.0613 -0.16443,-0.0613 -0.34698,-0.0613 -0.34698,-0.0613 l -0.0223,0.16304 -1.36981,0.0195 c 0,0 -0.0808,-0.14214 -0.22435,-0.34698 -0.14353,-0.20485 -0.16304,-0.22575 -0.16304,-0.22575 0,0 0.22296,-0.77618 -0.14492,-1.63596 -0.36788,-0.8584 -0.61453,-0.8584 -0.61453,-0.8584 0,0 0.24804,-0.73855 0.22574,-1.12455 -0.0209,-0.38879 -0.0209,-0.51142 -0.0209,-0.51142 0,0 0.51141,0.20485 0.55322,-0.22435 0.0404,-0.43059 0.50863,-1.67777 0.71347,-2.20869 0.20345,-0.53092 0.43059,-1.3085 0.51141,-1.86032 0.0808,-0.55183 0.12263,-0.73716 0.43059,-1.61367 0.30797,-0.88209 0.4501,-1.43252 0.63683,-2.08746 0.18255,-0.65355 1.48965,-4.4578 1.81991,-5.48063 0.32469,-1.02143 0.65494,-2.37173 0.75528,-2.84273 0.10451,-0.471 0.18533,-0.43199 0.28706,-0.89881 0.10172,-0.471 0.26476,-0.9211 0.28706,-1.28898 0.0195,-0.36928 0.10312,-0.69536 0.10312,-0.69536 0,0 0.28566,0.0808 0.20345,1.00193 -0.0836,0.9211 -0.28846,2.12647 -0.24805,2.51665 0.0432,0.38879 0.18673,1.12456 0.26616,1.30989 0.085,0.18255 -0.40829,1.57187 -0.51141,2.37173 -0.10173,0.79569 -0.32608,2.1864 -0.12124,3.17021 0.20485,0.97963 -0.0836,2.12508 -0.0418,2.34944 0.0418,0.22714 0.22575,0.75667 0.22575,1.55375 0,0.79847 0.16443,2.51805 0.10033,3.23291 -0.0599,0.71626 0.10312,1.24718 0.12541,1.83942 0.0195,0.59502 0.0195,0.8793 0.18255,1.14545 0.16583,0.26616 0.24526,0.10312 0.24526,0.51142 0,0.40969 0.16443,1.98434 0.18672,2.35083 0.0195,0.36788 10e-4,0.73576 10e-4,0.73576 z m 5.19356,39.61157 c -0.0822,0.28566 -0.16164,0.42919 -0.20345,0.71625 -0.0404,0.28567 -0.0599,0.49052 -0.16304,0.44871 -0.10033,-0.039 -0.22574,-0.9002 -0.26476,-1.28898 -0.0404,-0.3874 -0.0404,-0.81938 -0.0223,-0.98103 0.0223,-0.16443 -0.59223,-0.26616 -0.71765,-0.32747 -0.12123,-0.0613 0.39018,-0.59224 0.39018,-0.59224 0,0 0.16165,0.24526 0.4292,0.69397 0.26616,0.4501 0.55182,0.73716 0.57273,0.65494 0.0237,-0.0822 0.32747,-0.20484 0.32747,-0.20484 0,0 -0.26337,0.59502 -0.34838,0.88069 z m 7.75482,-25.21534 c -0.44871,0.30657 -0.69396,0.75667 -1.12595,1.43251 -0.43059,0.67585 -0.71765,1.24718 -1.02283,1.69589 -0.30656,0.4501 -1.14406,1.88262 -1.14406,1.88262 l -0.67445,-2.59609 c 0,0 0.14353,-0.49191 0.28567,-1.39211 0.14213,-0.8988 0.0822,-2.14737 0.0822,-2.14737 0,0 0,-0.10312 0.12263,-0.94062 0.12263,-0.83888 0.10033,-1.71539 0.12263,-2.51665 0.0195,-0.79708 0.0195,-1.14406 0.12263,-1.65548 0.10172,-0.51002 0.18533,-2.04565 0.18533,-2.43444 0,-0.38739 0.14214,-0.67584 0.26337,-1.24578 0.12402,-0.57273 -0.0599,-0.96291 -0.16025,-1.61507 -0.10312,-0.65634 -0.10312,-0.98102 -0.10312,-0.98102 0,0 -0.0418,0.0209 0.18255,-0.34837 0.22714,-0.36789 0.20484,-0.75667 0.20484,-0.75667 0,0 0.22714,0.36649 0.49191,1.06463 0.26616,0.69257 0.14492,0.56994 0.28845,1.38932 0.14214,0.81798 0.34559,1.7572 0.59085,3.55899 0.24665,1.79761 0.49329,3.37505 0.9002,4.86748 0.40829,1.49383 1.32939,1.7795 1.32939,1.7795 0,0 -0.4933,0.65076 -0.942,0.95873 z m 5.829,-29.07951 c -0.20485,0.32747 -0.26616,0.71626 -0.41108,0.73716 -0.14214,0.0223 -0.0599,-0.12263 -0.0376,-0.24526 0.0195,-0.12262 0.14214,-0.0613 0.14214,-0.22574 0,-0.16443 0.10172,-0.32608 0.28567,-0.53092 0.18672,-0.20485 0.26615,-0.32887 0.36927,-0.4501 0.10173,-0.12403 0.18673,0.0599 0.18673,0.0599 0,0 -0.33026,0.32747 -0.5351,0.65494 z m 2.6783,-8.4864 c -0.0822,0.20484 -0.46682,1.12595 -0.73159,1.61646 -0.26755,0.49051 -0.45149,0.65494 -0.41108,0.8988 0.0404,0.24526 0.0223,0.32887 0.0223,0.32887 0,0 -0.4933,0.30796 -0.63683,0.53092 -0.14214,0.22714 -0.18255,0.471 -0.44871,0.8793 -0.26615,0.40829 -0.63543,0.94061 -0.63543,0.94061 l -0.0822,0.0613 0.0209,0.12263 c 0,0 -0.18534,0.12263 -0.26198,0.20484 -0.0836,0.0822 -0.20485,0.12263 -0.20485,0.12263 0,0 -0.55182,-4.58042 0.10312,-8.07671 0.65355,-3.49768 1.18448,-4.88839 1.18448,-4.88839 l 0.77757,0.12124 c 0,0 0.34837,0.90159 0.43198,1.18865 0.0808,0.28567 0.24526,0.65355 0.20345,1.08414 -0.0404,0.42641 -0.12402,1.04094 -0.0223,1.51194 0.10311,0.47101 0.16582,0.79848 0.16582,0.79848 l -0.53371,0.36788 c 0,0 -0.14492,0.52953 0.0418,0.79569 0.18394,0.26755 0.40969,0.63683 0.71765,0.9211 0.2996,0.28567 0.3846,0.26477 0.2996,0.46961 z" id="path55" style="fill-rule:evenodd" />
                            </g>
                        </g>
                        <text id="text3" style="font-family: Goblin; font-size: 21px; font-weight: normal; font-style: normal; fill: rgb(247, 86, 9); position: relative;" transform="matrix(1, 0, 0, 1, 6, 67)" px="6" py="67" pFont="normal" a2:enable="true" xmlns:a2="http://www.codedread.com/dragsvg" cursor="" class="" x="6" y="67"><animateTransform id="animationRotate_text3" attributeName="transform" type="rotate" from="0 64.21666717529297 60.5" to="360 64.21666717529297 60.5" dur="3s" repeatCount="indefinite" />GRATIS<animate id="animationColor_text3" dur="3s" attributeName="fill" from="rgb(247, 86, 9)" to="#beaded" repeatCount="indefinite" /></text>
                        <rect x="0" y="0" width="130" height="130" id="rectBorder" fill="none" stroke="#000000" stroke-width="0" stroke-opacity="1" shape-rendering="geometricPrecision" />
                    </g>
                </svg>